<?xml version="1.0" encoding="utf-8"?>
<!-- Generator: Adobe Illustrator 21.1.0, SVG Export Plug-In . SVG Version: 6.00 Build 0)  -->
<svg version="1.1" id="_x31_aa13704-214d-4bfa-98a4-ea619ba4106f"
	 xmlns="http://www.w3.org/2000/svg" xmlns:xlink="http://www.w3.org/1999/xlink" x="0px" y="0px" viewBox="0 0 355.7 65.2"
	 style="enable-background:new 0 0 355.7 65.2;" xml:space="preserve">
<style type="text/css">
	.st0{fill:#FFFFFF;}
	.st1{fill:#BD2036;}
	.st2{fill:#00275B;}
</style>
<title>ua-libraries-logo</title>
<polygon class="st0" points="11.9,4.4 11.9,22.7 13.8,22.7 6.3,42.5 0,42.5 0,60.8 61.1,60.8 61.1,42.5 54.8,42.5 47.4,22.7 
	49.2,22.7 49.2,4.4 "/>
<path class="st1" d="M30.5,11.2l13.1,33.9c0,0,1.7,4.1,4.4,4.1h-9.5c0.4,0,0.8-0.3,1-0.7c0.1-0.4,0.1-0.8,0-1.1l-3-7.6h-12l-3,7.6
	c-0.1,0.4-0.1,0.8,0,1.1c0.2,0.4,0.6,0.7,1,0.7h-9.5c2.7,0,4.4-4.1,4.4-4.1L30.5,11.2z"/>
<polygon class="st2" points="30.5,11.2 42.3,11.2 42.3,15.9 37.4,15.9 50.3,49.1 54.1,49.1 54.1,54 38.2,54 38.2,49.3 33.7,49.3 
	33.7,58.6 58.9,58.6 58.9,44.7 53.2,44.7 44.2,20.5 47,20.5 47,6.6 30.5,6.6 14.1,6.6 14.1,20.5 16.9,20.5 7.9,44.7 2.2,44.7 
	2.2,58.6 27.4,58.6 27.4,49.3 22.9,49.3 22.9,54 7,54 7,49.1 10.8,49.1 23.6,15.9 18.8,15.9 18.8,11.2 "/>
<polygon class="st0" points="30.5,36.3 35.1,36.3 30.6,24.4 25.9,36.3 "/>
<rect x="77.6" class="st0" width="1.3" height="65.2"/>
<path class="st0" d="M113.6,43.1v-2.2c-1.6,1.8-3.9,2.8-6.3,2.7c-1.4,0-2.8-0.3-4-0.9c-1.1-0.6-2-1.5-2.6-2.6
	c-0.2-0.4-0.4-0.7-0.5-1.1c-0.1-0.4-0.2-0.9-0.2-1.3c0-0.5-0.1-1.2-0.1-2.1v-9.3c0-0.7,0-1.4-0.1-2.1c0-0.4-0.2-0.8-0.4-1.2
	c-0.2-0.3-0.5-0.6-0.9-0.7h6c-0.3,0.2-0.6,0.4-0.9,0.7c-0.2,0.4-0.4,0.8-0.4,1.2c-0.1,0.7-0.1,1.4-0.1,2.1v9.2
	c0,0.8,0.1,1.6,0.2,2.4c0.2,0.6,0.5,1.1,0.9,1.6c0.5,0.6,1.1,1,1.8,1.3c0.7,0.3,1.5,0.5,2.3,0.5c0.9,0,1.8-0.2,2.6-0.6
	c0.8-0.4,1.4-0.9,1.9-1.6c0.2-0.3,0.4-0.6,0.5-1c0.1-0.5,0.2-1,0.1-1.5V26.3c0-0.7,0-1.4-0.1-2.1c0-0.4-0.2-0.8-0.4-1.2
	c-0.2-0.3-0.5-0.6-0.9-0.7h6c-0.3,0.2-0.6,0.4-0.8,0.8c-0.2,0.4-0.4,0.8-0.4,1.2c-0.1,0.7-0.1,1.4-0.1,2.1V39c0,0.7,0,1.4,0.1,2.1
	c0,0.4,0.2,0.8,0.4,1.2c0.2,0.3,0.5,0.6,0.9,0.7L113.6,43.1L113.6,43.1z"/>
<path class="st0" d="M124.2,27.9v2.6c0.6-0.8,1.4-1.4,2.2-1.9c0.8-0.4,1.6-0.6,2.5-0.5c0.7,0,1.3,0.1,1.9,0.3
	c0.6,0.2,1.2,0.4,1.7,0.8c0.5,0.3,0.9,0.7,1.2,1.2c0.3,0.5,0.5,1,0.6,1.6c0.1,0.9,0.2,1.8,0.2,2.7V40c0,0.7,0,1.3,0.2,2
	c0.2,0.5,0.6,0.8,1,1.1h-5.3c0.3-0.2,0.6-0.5,0.8-0.8c0.2-0.2,0.3-0.5,0.3-0.8c0.1-0.5,0.1-1,0.1-1.5v-5c0-0.7,0-1.3-0.2-2
	c-0.1-0.4-0.3-0.8-0.5-1.2c-0.3-0.4-0.8-0.8-1.3-1c-0.6-0.2-1.2-0.4-1.8-0.4c-0.6,0-1.2,0.1-1.7,0.4c-0.5,0.2-0.9,0.6-1.3,1
	c-0.3,0.5-0.5,1.2-0.4,1.8V40c0,0.5,0,1,0.1,1.5c0,0.3,0.1,0.5,0.3,0.8c0.2,0.3,0.5,0.6,0.8,0.8h-5.2c0.3-0.2,0.6-0.5,0.8-0.8
	c0.2-0.2,0.3-0.5,0.3-0.8c0.1-0.5,0.1-1.1,0.1-1.6v-8.4c0-0.5,0-1.1-0.1-1.6c0-0.3-0.1-0.5-0.3-0.8c-0.2-0.3-0.5-0.6-0.8-0.8h2
	C123,28.6,123.7,28.3,124.2,27.9z"/>
<path class="st0" d="M141.7,27.9V40c0,0.5,0,1,0.1,1.5c0,0.3,0.1,0.5,0.3,0.8c0.2,0.3,0.5,0.6,0.8,0.8h-5.2c0.3-0.2,0.6-0.5,0.8-0.8
	c0.2-0.2,0.3-0.5,0.3-0.8c0.1-0.5,0.1-1.1,0.1-1.6v-8.4c0-0.5,0-1.1-0.1-1.6c0-0.3-0.1-0.5-0.3-0.8c-0.2-0.3-0.5-0.6-0.8-0.8h2.2
	C140.5,28.5,141.2,28.3,141.7,27.9z M140.2,22.6c0.5,0,1,0.2,1.4,0.6c0.4,0.4,0.6,0.9,0.6,1.4c0,0.5-0.2,1-0.6,1.4
	c-0.4,0.4-0.9,0.6-1.4,0.6c-0.5,0-1-0.2-1.4-0.6c-0.4-0.4-0.6-0.9-0.6-1.4c0-0.5,0.2-1,0.6-1.4C139.2,22.8,139.7,22.6,140.2,22.6z"
	/>
<path class="st0" d="M153,40.4l3.8-8.5c0.3-0.6,0.5-1.2,0.5-1.9c0-0.3-0.1-0.6-0.2-0.8c-0.2-0.3-0.5-0.5-0.8-0.8h4.5l-7.2,15.8
	c-0.7-0.4-1.3-0.8-1.9-1.2c-0.4-0.3-0.7-0.6-1-1c-0.3-0.5-0.6-1.1-0.8-1.7l-3.7-8.5c-0.2-0.6-0.5-1.1-0.8-1.7
	c-0.2-0.3-0.4-0.5-0.6-0.7c-0.4-0.3-0.8-0.6-1.3-0.8h2.1c0.5,0,0.9,0,1.4-0.1c0.4-0.1,0.7-0.2,1-0.5c0.1,0.5,0.2,1,0.4,1.5L153,40.4
	z"/>
<path class="st0" d="M176.1,35.5h-11.6c0,1.1,0.3,2.2,0.9,3.2c0.5,0.9,1.3,1.6,2.2,2c1,0.5,2.1,0.7,3.3,0.7c0.6,0,1.3-0.1,1.9-0.2
	c0.6-0.1,1.2-0.3,1.7-0.5c0.6-0.3,1.1-0.6,1.7-0.9l-1.7,3c-0.5,0.2-0.9,0.3-1.4,0.5c-0.5,0.1-1,0.2-1.4,0.2c-0.5,0-1,0.1-1.5,0.1
	c-1.6,0-3.2-0.3-4.6-1c-1.3-0.6-2.4-1.5-3.1-2.7c-0.8-1.2-1.2-2.6-1.1-4c0-0.7,0.1-1.5,0.3-2.2c0.2-0.7,0.5-1.4,0.9-2
	c0.4-0.6,0.8-1.2,1.4-1.7c0.7-0.6,1.5-1.1,2.4-1.4c0.9-0.3,1.9-0.5,2.9-0.5c1,0,2,0.2,2.9,0.5c0.8,0.3,1.6,0.8,2.3,1.4
	c0.6,0.6,1.2,1.4,1.5,2.2c0.4,0.9,0.6,1.8,0.5,2.8V35.5L176.1,35.5z M164.6,33.5h8.2c-0.4-2.4-1.8-3.5-4-3.5c-1,0-1.9,0.3-2.7,0.9
	C165.3,31.5,164.8,32.5,164.6,33.5L164.6,33.5z"/>
<path class="st0" d="M183.2,43.1H178c0.3-0.2,0.6-0.5,0.8-0.8c0.2-0.2,0.3-0.5,0.3-0.8c0.1-0.5,0.1-1,0.1-1.6v-8.4
	c0-0.5,0-1.1-0.1-1.6c0-0.3-0.1-0.5-0.3-0.8c-0.2-0.3-0.5-0.6-0.8-0.8h2.2c0.7,0.1,1.3-0.2,1.9-0.6v2.6c0.4-0.7,0.9-1.4,1.6-1.8
	c0.7-0.4,1.4-0.6,2.2-0.6c0.4,0,0.7,0,1.1,0.1v2.9c-0.4-0.4-0.9-0.5-1.5-0.5c-0.5,0-1.1,0.1-1.6,0.3c-0.5,0.2-0.9,0.5-1.1,1
	c-0.5,0.9-0.7,1.9-0.7,2.9V40c0,0.5,0,1,0.1,1.5c0,0.3,0.1,0.5,0.3,0.8C182.7,42.6,183,42.9,183.2,43.1z"/>
<path class="st0" d="M198.4,28.5v2.7c-1.2-0.8-2.5-1.2-3.9-1.2c-0.7,0-1.5,0.1-2.1,0.5c-0.5,0.2-0.8,0.7-0.8,1.3
	c0,0.3,0.1,0.6,0.3,0.8c0.3,0.3,0.6,0.5,1,0.7c0.7,0.3,1.3,0.5,2,0.7c0.9,0.3,1.7,0.6,2.6,1c0.5,0.2,1,0.5,1.4,0.9
	c0.8,0.7,1.2,1.7,1.2,2.8c0,0.9-0.3,1.8-0.9,2.6c-0.6,0.8-1.5,1.4-2.4,1.7c-1.2,0.4-2.4,0.6-3.7,0.6c-0.7,0-1.4,0-2.1-0.2
	c-0.7-0.2-1.4-0.4-2.1-0.6l-1-3.2c0.7,0.4,1.4,0.8,2.1,1.2c0.6,0.3,1.2,0.5,1.9,0.6c0.6,0.1,1.3,0.2,1.9,0.2c0.9,0,1.7-0.2,2.4-0.6
	c0.6-0.3,1-0.9,1-1.6c0-0.6-0.2-1.1-0.7-1.4c-1-0.5-2-1-3-1.3c-1-0.3-1.9-0.8-2.9-1.3c-0.6-0.3-1.1-0.8-1.5-1.3
	c-0.3-0.5-0.4-1.1-0.4-1.7c0-0.8,0.2-1.6,0.7-2.3c0.6-0.7,1.3-1.2,2.1-1.5c1.1-0.4,2.2-0.5,3.3-0.5C196.1,28,197.3,28.2,198.4,28.5z
	"/>
<path class="st0" d="M205.7,27.9V40c0,0.5,0,1,0.1,1.5c0,0.3,0.1,0.5,0.3,0.8c0.2,0.3,0.5,0.6,0.8,0.8h-5.2c0.3-0.2,0.6-0.5,0.8-0.8
	c0.2-0.2,0.3-0.5,0.3-0.8c0.1-0.5,0.1-1.1,0.1-1.6v-8.4c0-0.5,0-1.1-0.1-1.6c0-0.3-0.1-0.5-0.3-0.8c-0.2-0.3-0.5-0.6-0.8-0.8h2.2
	C204.5,28.5,205.2,28.3,205.7,27.9z M204.2,22.6c0.5,0,1,0.2,1.4,0.6c0.4,0.4,0.6,0.9,0.6,1.4c0,0.5-0.2,1-0.6,1.4
	c-0.4,0.4-0.9,0.6-1.4,0.6c-0.5,0-1-0.2-1.4-0.6c-0.4-0.4-0.6-0.9-0.6-1.4c0-0.5,0.2-1,0.6-1.4C203.2,22.8,203.7,22.6,204.2,22.6z"
	/>
<path class="st0" d="M213,30.6v6.7c0,0.6,0,1.3,0.1,1.9c0.1,0.4,0.2,0.7,0.4,1c0.6,0.7,1.5,1.1,2.4,1.1c0.5,0,0.9-0.1,1.3-0.3
	l-1.6,2.2c-0.4,0.1-0.8,0.2-1.1,0.2c-1.2,0-2.4-0.5-3.2-1.4c-0.3-0.3-0.5-0.6-0.7-1c-0.2-0.4-0.3-0.8-0.3-1.2
	c-0.1-0.8-0.1-1.5-0.1-2.3v-7H208v-1.1c1-0.1,1.9-0.6,2.6-1.4c0.9-1.1,1.3-2.5,1.2-3.9v-0.4h1.2v4.7h2.5c0.6,0,1.3,0,1.9-0.2v2.9
	c-0.2-0.2-0.5-0.4-0.8-0.5c-0.4-0.1-0.8-0.1-1.2-0.1L213,30.6L213,30.6z"/>
<path class="st0" d="M227.7,40.3l3.3-8.4c0.3-0.6,0.4-1.3,0.5-1.9c0-0.6-0.4-1.2-0.9-1.4h4.4l-6.8,16.1c-0.3,0.8-0.7,1.5-1.1,2.2
	c-0.4,0.5-0.8,1-1.3,1.4c-0.6,0.5-1.2,0.8-1.9,1c-0.8,0.2-1.6,0.3-2.4,0.3c-0.6,0-1.1-0.1-1.7-0.2c-0.7-0.2-1.4-0.4-2.1-0.6l2.9-2.1
	c0.5,0.3,1.2,0.5,1.8,0.5c0.8,0,1.5-0.3,2.1-0.9c0.7-0.8,1.3-1.7,1.6-2.7l0.3-0.8c-0.4-0.4-0.6-0.6-0.8-0.8
	c-0.1-0.2-0.3-0.3-0.4-0.5c-0.1-0.2-0.3-0.5-0.5-1l-4.2-9.2c-0.3-0.7-0.7-1.3-1.1-1.9c-0.3-0.4-0.8-0.7-1.3-0.9l3.1-0.1
	c0.3,0,0.7,0,1,0.1c0.3,0.2,0.6,0.5,0.7,0.9L227.7,40.3z"/>
<path class="st0" d="M248.5,26.3v14.2c1.4,0.2,2.8,0.3,4.3,0.3c1,0,2-0.1,3-0.4c1-0.4,1.9-0.9,2.8-1.5l-1.7,4.2h-13
	c0.4-0.2,0.7-0.4,0.9-0.7c0.2-0.4,0.4-0.8,0.4-1.2c0.1-0.7,0.1-1.4,0.1-2.1V26.3c0-0.7,0-1.4-0.1-2.1c0-0.4-0.2-0.8-0.4-1.2
	c-0.2-0.3-0.5-0.6-0.9-0.7h6c-0.4,0.2-0.7,0.4-0.9,0.7c-0.2,0.4-0.4,0.8-0.4,1.2C248.6,24.9,248.5,25.6,248.5,26.3z"/>
<path class="st0" d="M263.6,27.9V40c0,0.5,0,1,0.1,1.5c0,0.3,0.1,0.5,0.3,0.8c0.2,0.3,0.5,0.6,0.8,0.8h-5.2c0.3-0.2,0.6-0.5,0.8-0.8
	c0.2-0.2,0.3-0.5,0.3-0.8c0.1-0.5,0.1-1.1,0.1-1.6v-8.4c0-0.5,0-1.1-0.1-1.6c0-0.3-0.1-0.5-0.3-0.8c-0.2-0.3-0.5-0.6-0.8-0.8h2.2
	C262.4,28.5,263.1,28.3,263.6,27.9z M262.1,22.6c0.5,0,1,0.2,1.4,0.6c0.4,0.4,0.6,0.9,0.6,1.4c0,0.5-0.2,1-0.6,1.4
	c-0.4,0.4-0.9,0.6-1.4,0.6c-0.5,0-1-0.2-1.4-0.6c-0.4-0.4-0.6-0.9-0.6-1.4c0-0.5,0.2-1,0.6-1.4C261.1,22.8,261.6,22.6,262.1,22.6z"
	/>
<path class="st0" d="M271.2,31.1l1.7-2.7c0.4-0.1,0.7-0.2,1.1-0.3c0.4-0.1,0.7-0.1,1.1-0.1c0.9,0,1.8,0.2,2.6,0.5
	c0.8,0.4,1.5,0.9,2.1,1.5c0.6,0.7,1.1,1.5,1.4,2.3c0.8,2.4,0.6,5-0.6,7.1c-0.8,1.2-1.9,2.2-3.2,2.9c-1.5,0.7-3.1,1-4.7,1
	c-2,0-4.1-0.1-6.1-0.6c0.3-0.2,0.6-0.5,0.8-0.8c0.2-0.5,0.2-0.9,0.2-1.4V25.4c0-0.5,0-1.1-0.1-1.6c0-0.3-0.1-0.5-0.3-0.8
	c-0.2-0.3-0.5-0.6-0.8-0.8h2.2c0.7,0.1,1.3-0.2,1.9-0.6v19.3c0.9,0.2,1.8,0.4,2.7,0.4c1.5,0.1,2.9-0.4,4-1.4c1-1,1.5-2.4,1.4-3.8
	c0-1-0.2-2-0.6-2.9c-0.4-0.8-0.9-1.5-1.7-2c-0.7-0.5-1.6-0.7-2.4-0.7c-0.4,0-0.9,0-1.3,0.1C272.2,30.7,271.7,30.9,271.2,31.1z"/>
<path class="st0" d="M289,43.1h-5.2c0.3-0.2,0.6-0.5,0.8-0.8c0.2-0.2,0.3-0.5,0.3-0.8c0.1-0.5,0.1-1.1,0.1-1.6v-8.4
	c0-0.5,0-1.1-0.1-1.6c0-0.3-0.1-0.5-0.3-0.8c-0.2-0.3-0.5-0.6-0.8-0.8h2.2c0.7,0.1,1.3-0.2,1.9-0.6v2.6c0.4-0.7,0.9-1.4,1.6-1.8
	c0.7-0.4,1.4-0.6,2.2-0.6c0.4,0,0.7,0,1.1,0.1v2.9c-0.4-0.4-0.9-0.5-1.5-0.5c-0.5,0-1.1,0.1-1.6,0.3c-0.5,0.2-0.9,0.5-1.1,1
	c-0.5,0.9-0.7,1.9-0.7,2.9V40c0,0.5,0,1,0.1,1.5c0,0.3,0.1,0.5,0.3,0.8C288.4,42.6,288.7,42.9,289,43.1z"/>
<path class="st0" d="M302.6,39.2v-4.1c-0.3,0.2-0.6,0.3-1,0.4c-0.3,0.1-0.6,0.2-0.9,0.3l-2.2,0.5c-1.5,0.4-2.3,1.2-2.3,2.4
	c0,0.7,0.3,1.4,0.9,1.9c0.7,0.5,1.6,0.7,2.5,0.7c0.8,0,1.6-0.2,2.4-0.4l-1.9,2.4c-0.6,0.1-1.2,0.2-1.7,0.2c-1.4,0.1-2.7-0.4-3.8-1.2
	c-1-0.9-1.6-2.2-1.6-3.5c0-0.7,0.2-1.3,0.5-1.9c0.3-0.6,0.7-1,1.3-1.3c1.3-0.6,2.7-1,4.2-1.2c1-0.1,2-0.4,2.9-0.9
	c0.5-0.3,0.7-0.8,0.7-1.3c0-0.4-0.1-0.8-0.4-1.1c-0.3-0.3-0.7-0.6-1.1-0.7c-0.5-0.2-1-0.3-1.6-0.2c-0.6,0-1.3,0.1-1.9,0.3
	c-0.8,0.3-1.7,0.6-2.5,1l2.1-3.2c0.7-0.1,1.5-0.2,2.2-0.2c2.7,0,4.5,0.7,5.4,2.1c0.3,0.4,0.4,0.9,0.5,1.4c0.1,0.8,0.1,1.6,0.1,2.4
	V38c0,0.6,0,1.2,0.1,1.8c0.1,0.4,0.4,0.7,0.7,0.9c0.6,0.4,1.2,0.5,1.9,0.5l-1.4,2.1c-0.6,0-1.2-0.1-1.8-0.2
	c-0.4-0.1-0.8-0.3-1.2-0.5c-0.5-0.2-0.8-0.6-1-1.1C302.6,40.7,302.5,40,302.6,39.2z"/>
<path class="st0" d="M314.4,43.1h-5.2c0.3-0.2,0.6-0.5,0.8-0.8c0.2-0.2,0.3-0.5,0.3-0.8c0.1-0.5,0.1-1.1,0.1-1.6v-8.4
	c0-0.5,0-1.1-0.1-1.6c0-0.3-0.1-0.5-0.3-0.8c-0.2-0.3-0.5-0.6-0.8-0.8h2.2c0.7,0.1,1.3-0.2,1.9-0.6v2.6c0.4-0.7,0.9-1.4,1.6-1.8
	c0.7-0.4,1.4-0.6,2.2-0.6c0.4,0,0.7,0,1.1,0.1v2.9c-0.4-0.4-0.9-0.5-1.5-0.5c-0.5,0-1.1,0.1-1.6,0.3c-0.5,0.2-0.9,0.5-1.1,1
	c-0.5,0.9-0.7,1.9-0.7,2.9V40c0,0.5,0,1,0.1,1.5c0,0.3,0.1,0.5,0.3,0.8C313.9,42.6,314.1,42.9,314.4,43.1z"/>
<path class="st0" d="M323.7,27.9V40c0,0.5,0,1,0.1,1.5c0,0.3,0.1,0.5,0.3,0.8c0.2,0.3,0.5,0.6,0.8,0.8h-5.2c0.3-0.2,0.6-0.5,0.8-0.8
	c0.2-0.2,0.3-0.5,0.3-0.8c0.1-0.5,0.1-1.1,0.1-1.6v-8.4c0-0.5,0-1.1-0.1-1.6c0-0.3-0.1-0.5-0.3-0.8c-0.2-0.3-0.5-0.6-0.8-0.8h2.2
	C322.5,28.5,323.2,28.3,323.7,27.9z M322.2,22.6c0.5,0,1,0.2,1.4,0.6c0.4,0.4,0.6,0.9,0.6,1.4c0,0.5-0.2,1-0.6,1.4
	c-0.4,0.4-0.9,0.6-1.4,0.6c-0.5,0-1-0.2-1.4-0.6c-0.4-0.4-0.6-0.9-0.6-1.4c0-0.5,0.2-1,0.6-1.4C321.2,22.8,321.7,22.6,322.2,22.6z"
	/>
<path class="st0" d="M341.6,35.5H330c0,1.1,0.3,2.2,0.9,3.2c0.5,0.9,1.3,1.6,2.2,2c1,0.5,2.1,0.7,3.3,0.7c0.6,0,1.3,0,1.9-0.1
	c0.6-0.1,1.2-0.3,1.7-0.5c0.6-0.3,1.1-0.6,1.7-0.9l-1.7,3c-0.5,0.2-0.9,0.3-1.4,0.5c-0.5,0.1-1,0.2-1.4,0.2c-0.5,0-1,0.1-1.5,0.1
	c-1.6,0-3.2-0.3-4.6-1c-1.3-0.6-2.4-1.5-3.2-2.8c-0.8-1.2-1.2-2.6-1.1-4c0-0.7,0.1-1.5,0.3-2.2c0.2-0.7,0.5-1.4,0.9-2
	c0.4-0.6,0.8-1.2,1.4-1.7c0.7-0.6,1.5-1.1,2.4-1.4c0.9-0.3,1.9-0.5,2.9-0.5c1,0,2,0.2,2.9,0.5c0.9,0.3,1.6,0.8,2.3,1.4
	c0.6,0.6,1.2,1.4,1.5,2.2c0.4,0.9,0.6,1.8,0.5,2.8V35.5L341.6,35.5z M330.1,33.5h8.2c-0.4-2.4-1.8-3.5-4-3.5c-1,0-1.9,0.3-2.7,0.9
	C330.8,31.5,330.3,32.5,330.1,33.5L330.1,33.5z"/>
<path class="st0" d="M354,28.5v2.7c-1.2-0.8-2.5-1.2-3.9-1.2c-0.7,0-1.5,0.1-2.1,0.5c-0.5,0.2-0.8,0.7-0.8,1.3
	c0,0.3,0.1,0.6,0.3,0.8c0.3,0.3,0.6,0.5,1,0.7c0.7,0.3,1.3,0.5,2,0.7c0.9,0.3,1.7,0.6,2.6,1c0.5,0.2,1,0.5,1.4,0.9
	c0.8,0.7,1.2,1.7,1.2,2.8c0,0.9-0.3,1.8-0.9,2.6c-0.6,0.8-1.5,1.4-2.4,1.7c-1.2,0.4-2.4,0.6-3.7,0.6c-0.7,0-1.4,0-2.1-0.2
	c-0.7-0.2-1.4-0.4-2.1-0.6l-1-3.2c0.7,0.4,1.4,0.8,2.1,1.2c0.6,0.3,1.2,0.5,1.9,0.6c0.6,0.1,1.3,0.2,1.9,0.2c0.9,0,1.7-0.2,2.4-0.6
	c0.6-0.3,1-0.9,1-1.6c0-0.6-0.2-1.1-0.7-1.4c-1-0.5-2-1-3-1.3c-1-0.3-1.9-0.8-2.9-1.3c-0.6-0.3-1.1-0.8-1.5-1.3
	c-0.3-0.5-0.4-1.1-0.4-1.7c0-0.8,0.2-1.6,0.7-2.3c0.6-0.7,1.3-1.2,2.1-1.5c1.1-0.4,2.2-0.5,3.3-0.5C351.7,28,352.9,28.2,354,28.5z"
	/>
</svg>
