<svg id="1aa13704-214d-4bfa-98a4-ea619ba4106f" data-name="Layer 6" xmlns="http://www.w3.org/2000/svg" viewBox="0 0 360.54 138"><title>ua-libraries-logo</title><polygon points="15.64 4.41 15.63 22.7 17.52 22.7 10.07 42.5 3.77 42.49 3.77 60.8 64.86 60.8 64.86 42.47 58.52 42.46 51.13 22.71 52.98 22.72 52.98 4.41 15.64 4.41" style="fill:#fff"/><path d="M34.3,11.24L47.39,45.17s1.68,4.13,4.4,4.13H42.26a1.1,1.1,0,0,0,1-.72,1.58,1.58,0,0,0,0-1.13l-2.95-7.57h-12l-3,7.57a1.6,1.6,0,0,0,0,1.13,1.1,1.1,0,0,0,1,.72H16.84c2.72,0,4.4-4.13,4.4-4.13Z" style="fill:#bd2036"/><polygon points="34.32 11.2 46.11 11.2 46.11 15.92 41.21 15.92 54.1 49.13 57.91 49.13 57.91 54.02 41.94 54.02 41.94 49.27 37.45 49.27 37.45 58.59 62.66 58.59 62.66 44.69 57 44.7 47.93 20.51 50.78 20.51 50.78 6.61 34.32 6.61 17.85 6.61 17.85 20.51 20.7 20.51 11.63 44.67 5.97 44.69 5.97 58.59 31.18 58.59 31.18 49.27 26.69 49.27 26.69 54.02 10.72 54.02 10.72 49.13 14.53 49.13 27.42 15.92 22.52 15.92 22.52 11.2 34.32 11.2" style="fill:#00275b"/><polygon points="34.29 36.27 38.9 36.27 34.38 24.37 29.7 36.27 34.29 36.27" style="fill:#fff"/><rect x="81.4" width="1.26" height="65.2" style="fill:#fff"/><rect x="81.4" y="72.36" width="1.26" height="65.2" style="fill:#fff"/><polygon points="15.64 76.77 15.63 95.06 17.52 95.06 10.07 114.86 3.77 114.86 3.77 133.16 64.86 133.16 64.86 114.83 58.52 114.82 51.13 95.08 52.98 95.08 52.98 76.77 15.64 76.77" style="fill:#fff"/><path d="M34.3,83.6l13.08,33.93s1.68,4.13,4.4,4.13H42.26a1.1,1.1,0,0,0,1-.72,1.58,1.58,0,0,0,0-1.13l-2.95-7.57h-12l-3,7.57a1.6,1.6,0,0,0,0,1.13,1.1,1.1,0,0,0,1,.72H16.84c2.72,0,4.4-4.13,4.4-4.13Z" style="fill:#bd2036"/><polygon points="34.32 83.56 46.11 83.56 46.11 88.28 41.21 88.28 54.1 121.49 57.91 121.49 57.91 126.38 41.94 126.38 41.94 121.62 37.45 121.62 37.45 130.95 62.66 130.95 62.66 117.05 57 117.06 47.93 92.87 50.78 92.87 50.78 78.97 34.32 78.97 17.85 78.97 17.85 92.87 20.7 92.87 11.63 117.03 5.97 117.05 5.97 130.95 31.18 130.95 31.18 121.62 26.69 121.62 26.69 126.38 10.72 126.38 10.72 121.49 14.53 121.49 27.42 88.28 22.52 88.28 22.52 83.56 34.32 83.56" style="fill:#00275b"/><polygon points="34.29 108.63 38.9 108.63 34.38 96.73 29.7 108.63 34.29 108.63" style="fill:#fff"/><path d="M117.39,43.09v-2.2a7.69,7.69,0,0,1-6.27,2.71,8.53,8.53,0,0,1-4-.93,5.84,5.84,0,0,1-2.59-2.56A5.78,5.78,0,0,1,104,39a7.47,7.47,0,0,1-.22-1.35q-0.07-.8-0.07-2.12V26.28a15.6,15.6,0,0,0-.11-2.12,2.72,2.72,0,0,0-.42-1.19,2.5,2.5,0,0,0-.89-0.74h6a2.55,2.55,0,0,0-.88.74,2.8,2.8,0,0,0-.41,1.18,14.79,14.79,0,0,0-.12,2.12V35.5a9.86,9.86,0,0,0,.23,2.42,4.28,4.28,0,0,0,.87,1.62,4.53,4.53,0,0,0,1.77,1.3,5.78,5.78,0,0,0,2.26.45,6,6,0,0,0,2.63-.59,5,5,0,0,0,1.93-1.59,3,3,0,0,0,.52-1,6.12,6.12,0,0,0,.14-1.47V26.28a14.81,14.81,0,0,0-.12-2.12,2.8,2.8,0,0,0-.41-1.18,2.55,2.55,0,0,0-.88-0.74h6A2.55,2.55,0,0,0,121,23a2.7,2.7,0,0,0-.42,1.17,14.74,14.74,0,0,0-.12,2.14V39a14.74,14.74,0,0,0,.12,2.14,2.7,2.7,0,0,0,.42,1.17,2.55,2.55,0,0,0,.88.73h-4.48Z" style="fill:#fff"/><path d="M128,27.88v2.64a8,8,0,0,1,2.23-1.91,5.27,5.27,0,0,1,2.46-.55,7,7,0,0,1,1.94.28,5.78,5.78,0,0,1,1.72.8,4.7,4.7,0,0,1,1.2,1.18,4.36,4.36,0,0,1,.59,1.57,16.68,16.68,0,0,1,.16,2.7V40a6.75,6.75,0,0,0,.18,2,3.14,3.14,0,0,0,1,1.13h-5.29A4.49,4.49,0,0,0,135,42.3a1.77,1.77,0,0,0,.31-0.81A11.46,11.46,0,0,0,135.4,40v-5a9.81,9.81,0,0,0-.16-2,2.72,2.72,0,0,0-.53-1.18,3.2,3.2,0,0,0-1.33-1,4.67,4.67,0,0,0-1.85-.37,4.1,4.1,0,0,0-1.74.37,3.16,3.16,0,0,0-1.26,1,3.13,3.13,0,0,0-.42,1.8V40a11.59,11.59,0,0,0,.07,1.55,1.7,1.7,0,0,0,.3.78,5.1,5.1,0,0,0,.83.78h-5.24a4.42,4.42,0,0,0,.84-0.78,1.65,1.65,0,0,0,.29-0.75,12.71,12.71,0,0,0,.07-1.59V31.6a12.7,12.7,0,0,0-.07-1.6,1.65,1.65,0,0,0-.29-0.75,4.42,4.42,0,0,0-.84-0.78h2A2.45,2.45,0,0,0,128,27.88Z" style="fill:#fff"/><path d="M145.46,27.88V40a11.58,11.58,0,0,0,.07,1.55,1.7,1.7,0,0,0,.3.78,5.1,5.1,0,0,0,.83.78h-5.24a4.42,4.42,0,0,0,.84-0.78,1.65,1.65,0,0,0,.29-0.75,12.71,12.71,0,0,0,.07-1.59V31.6a12.71,12.71,0,0,0-.07-1.6,1.65,1.65,0,0,0-.29-0.75,4.42,4.42,0,0,0-.84-0.78h2.2A2.42,2.42,0,0,0,145.46,27.88ZM144,22.62a1.82,1.82,0,0,1,1.36.58,1.91,1.91,0,0,1,.56,1.37,2,2,0,0,1-.56,1.41,1.89,1.89,0,0,1-1.41.58,1.86,1.86,0,0,1-1.38-.58,2,2,0,0,1-.56-1.41,1.85,1.85,0,0,1,.59-1.38A2,2,0,0,1,144,22.62Z" style="fill:#fff"/><path d="M156.78,40.39l3.78-8.47a5.08,5.08,0,0,0,.54-1.86,1.49,1.49,0,0,0-.21-0.84,3.36,3.36,0,0,0-.82-0.75h4.5l-7.19,15.78A19.37,19.37,0,0,1,155.43,43a4.14,4.14,0,0,1-1-1,11.08,11.08,0,0,1-.81-1.65l-3.72-8.55a18.63,18.63,0,0,0-.82-1.68,2.82,2.82,0,0,0-.63-0.74,12,12,0,0,0-1.26-.84h2.11a6,6,0,0,0,1.35-.11,3,3,0,0,0,1-.46,5,5,0,0,0,.4,1.46Z" style="fill:#fff"/><path d="M179.87,35.47H168.23a6.85,6.85,0,0,0,.86,3.16,5.1,5.1,0,0,0,2.2,2,7.31,7.31,0,0,0,3.28.7,10.46,10.46,0,0,0,1.91-.17,7.49,7.49,0,0,0,1.72-.53,10.82,10.82,0,0,0,1.67-.94l-1.71,3a12.93,12.93,0,0,1-1.43.45,10,10,0,0,1-1.44.24q-0.75.07-1.52,0.07a10.64,10.64,0,0,1-4.64-1A7.55,7.55,0,0,1,166,39.78a7.28,7.28,0,0,1-1.14-4,7.72,7.72,0,0,1,.31-2.18,8.44,8.44,0,0,1,.9-2,7.49,7.49,0,0,1,1.36-1.66,6.79,6.79,0,0,1,2.35-1.37,9,9,0,0,1,2.92-.46,7.85,7.85,0,0,1,2.87.51A6.88,6.88,0,0,1,177.82,30a6.56,6.56,0,0,1,1.51,2.19,6.94,6.94,0,0,1,.54,2.76v0.51Zm-11.51-2h8.19q-0.67-3.54-4-3.54a4.07,4.07,0,0,0-2.71.92A4.48,4.48,0,0,0,168.36,33.49Z" style="fill:#fff"/><path d="M187,43.09h-5.24a4.42,4.42,0,0,0,.84-0.78,1.65,1.65,0,0,0,.29-0.75A12.73,12.73,0,0,0,183,40V31.6a12.73,12.73,0,0,0-.07-1.6,1.65,1.65,0,0,0-.29-0.75,4.42,4.42,0,0,0-.84-0.78H184a2.42,2.42,0,0,0,1.85-.6v2.61a4.72,4.72,0,0,1,1.6-1.81,4,4,0,0,1,2.2-.62,6.49,6.49,0,0,1,1.1.12v2.92a2.06,2.06,0,0,0-1.49-.51,3.69,3.69,0,0,0-1.58.34,2.78,2.78,0,0,0-1.14.95,5,5,0,0,0-.67,2.89V40a11.59,11.59,0,0,0,.07,1.55,1.71,1.71,0,0,0,.3.78A5.1,5.1,0,0,0,187,43.09Z" style="fill:#fff"/><path d="M202.19,28.48v2.7a7.61,7.61,0,0,0-3.9-1.23,4,4,0,0,0-2.12.49,1.46,1.46,0,0,0-.8,1.28,1.21,1.21,0,0,0,.32.82,3,3,0,0,0,1,.69,19.77,19.77,0,0,0,2,.73,26.35,26.35,0,0,1,2.59,1,5.48,5.48,0,0,1,1.37.91,3.67,3.67,0,0,1,1.23,2.77,4.17,4.17,0,0,1-.86,2.59,5.36,5.36,0,0,1-2.43,1.73,10.36,10.36,0,0,1-3.7.6,11.83,11.83,0,0,1-2.12-.16,13.73,13.73,0,0,1-2.14-.63L191.6,39.6a18.23,18.23,0,0,0,2.15,1.17,8.86,8.86,0,0,0,1.85.61,9.52,9.52,0,0,0,1.91.18,4.38,4.38,0,0,0,2.43-.64,1.86,1.86,0,0,0,1-1.59,1.66,1.66,0,0,0-.72-1.44,17,17,0,0,0-3-1.29,17,17,0,0,1-2.86-1.26A4.06,4.06,0,0,1,192.88,34a3.25,3.25,0,0,1-.43-1.72A3.63,3.63,0,0,1,193.2,30a4.59,4.59,0,0,1,2.15-1.47,9.75,9.75,0,0,1,3.32-.51A12.7,12.7,0,0,1,202.19,28.48Z" style="fill:#fff"/><path d="M209.44,27.88V40a11.57,11.57,0,0,0,.07,1.55,1.7,1.7,0,0,0,.3.78,5.1,5.1,0,0,0,.83.78H205.4a4.42,4.42,0,0,0,.84-0.78,1.65,1.65,0,0,0,.29-0.75A12.71,12.71,0,0,0,206.6,40V31.6a12.71,12.71,0,0,0-.07-1.6,1.65,1.65,0,0,0-.29-0.75,4.42,4.42,0,0,0-.84-0.78h2.2A2.42,2.42,0,0,0,209.44,27.88ZM208,22.62a1.82,1.82,0,0,1,1.36.58,1.91,1.91,0,0,1,.56,1.37,2,2,0,0,1-.56,1.41,1.89,1.89,0,0,1-1.41.58,1.86,1.86,0,0,1-1.38-.58,2,2,0,0,1-.56-1.41,1.85,1.85,0,0,1,.59-1.38A2,2,0,0,1,208,22.62Z" style="fill:#fff"/><path d="M216.79,30.58V37.3a11.25,11.25,0,0,0,.12,1.93,2.34,2.34,0,0,0,.45,1,3,3,0,0,0,2.43,1.08,3.77,3.77,0,0,0,1.32-.26l-1.64,2.24a3.42,3.42,0,0,1-1.14.19,4.32,4.32,0,0,1-3.24-1.39,4.08,4.08,0,0,1-.73-1,4,4,0,0,1-.32-1.25,21.73,21.73,0,0,1-.09-2.29v-7h-2.17V29.43a4.36,4.36,0,0,0,2.61-1.38,5.5,5.5,0,0,0,1.17-3.9v-0.4h1.23v4.72h2.46a5.77,5.77,0,0,0,1.86-.19v2.86a2,2,0,0,0-.76-0.45,4.45,4.45,0,0,0-1.22-.12h-2.34Z" style="fill:#fff"/><path d="M231.44,40.26l3.33-8.42a5.32,5.32,0,0,0,.48-1.92,1.74,1.74,0,0,0-.92-1.44h4.44L232,44.58a11.74,11.74,0,0,1-1.11,2.18,6.84,6.84,0,0,1-1.33,1.42,5.86,5.86,0,0,1-1.94,1,7.81,7.81,0,0,1-2.35.34,8.39,8.39,0,0,1-1.69-.17,17.83,17.83,0,0,1-2.15-.64l2.86-2.07a3.58,3.58,0,0,0,1.79.54,2.92,2.92,0,0,0,2.1-.89,7.59,7.59,0,0,0,1.62-2.71l0.31-.84q-0.56-.56-0.77-0.8a2.94,2.94,0,0,1-.37-0.53q-0.16-.29-0.48-1l-4.19-9.16a8.88,8.88,0,0,0-1.11-1.92,3.37,3.37,0,0,0-1.27-.89l3.06-.13a2.67,2.67,0,0,1,1,.1,1.57,1.57,0,0,1,.66.92Z" style="fill:#fff"/><path d="M252.3,26.28V40.51a29.6,29.6,0,0,0,4.26.32,9.23,9.23,0,0,0,3-.42,11.24,11.24,0,0,0,2.8-1.53l-1.68,4.2H247.7a2.48,2.48,0,0,0,.89-0.74,2.7,2.7,0,0,0,.42-1.19,15.58,15.58,0,0,0,.11-2.12V26.28a15.57,15.57,0,0,0-.11-2.12A2.72,2.72,0,0,0,248.6,23a2.5,2.5,0,0,0-.89-0.74h6a2.36,2.36,0,0,0-.89.73,2.79,2.79,0,0,0-.4,1.19A15.75,15.75,0,0,0,252.3,26.28Z" style="fill:#fff"/><path d="M267.35,27.88V40a11.59,11.59,0,0,0,.07,1.55,1.7,1.7,0,0,0,.3.78,5.05,5.05,0,0,0,.83.78H263.3a4.46,4.46,0,0,0,.84-0.78,1.67,1.67,0,0,0,.29-0.75A13,13,0,0,0,264.5,40V31.6a13,13,0,0,0-.07-1.6,1.67,1.67,0,0,0-.29-0.75,4.46,4.46,0,0,0-.84-0.78h2.2A2.42,2.42,0,0,0,267.35,27.88Zm-1.44-5.26a1.82,1.82,0,0,1,1.36.58,1.91,1.91,0,0,1,.56,1.37,2,2,0,0,1-.56,1.41,1.89,1.89,0,0,1-1.41.58,1.85,1.85,0,0,1-1.38-.58,2,2,0,0,1-.56-1.41,1.85,1.85,0,0,1,.59-1.38A2,2,0,0,1,265.91,22.62Z" style="fill:#fff"/><path d="M275,31.12l1.74-2.67a8,8,0,0,1,1.08-.31,5.79,5.79,0,0,1,1.08-.09,6.39,6.39,0,0,1,2.64.55,6.58,6.58,0,0,1,2.15,1.55,7,7,0,0,1,1.42,2.32,8.63,8.63,0,0,1-.62,7.14,7.56,7.56,0,0,1-3.19,2.87,10.47,10.47,0,0,1-4.72,1,26.87,26.87,0,0,1-6.09-.57,2,2,0,0,0,.78-0.82,3.79,3.79,0,0,0,.19-1.41V25.36a12.7,12.7,0,0,0-.07-1.6,1.65,1.65,0,0,0-.29-0.75,4.41,4.41,0,0,0-.84-0.78h2.18a2.57,2.57,0,0,0,1.86-.6V40.89a11.57,11.57,0,0,0,2.7.37A5.37,5.37,0,0,0,281,39.83,5.15,5.15,0,0,0,282.41,36a6.78,6.78,0,0,0-.59-2.91,4.68,4.68,0,0,0-1.66-2,4.29,4.29,0,0,0-2.42-.7,5.27,5.27,0,0,0-1.3.15A7.18,7.18,0,0,0,275,31.12Z" style="fill:#fff"/><path d="M292.75,43.09h-5.24a4.39,4.39,0,0,0,.84-0.78,1.63,1.63,0,0,0,.29-0.75,12.51,12.51,0,0,0,.07-1.59V31.6a12.5,12.5,0,0,0-.07-1.6,1.63,1.63,0,0,0-.29-0.75,4.39,4.39,0,0,0-.84-0.78h2.2a2.42,2.42,0,0,0,1.85-.6v2.61a4.72,4.72,0,0,1,1.6-1.81,4,4,0,0,1,2.2-.62,6.49,6.49,0,0,1,1.1.12v2.92a2.06,2.06,0,0,0-1.49-.51,3.69,3.69,0,0,0-1.58.34,2.78,2.78,0,0,0-1.14.95,5,5,0,0,0-.67,2.89V40a11.57,11.57,0,0,0,.07,1.55,1.71,1.71,0,0,0,.3.78A5.15,5.15,0,0,0,292.75,43.09Z" style="fill:#fff"/><path d="M306.32,39.25V35.16a8.66,8.66,0,0,1-.95.4c-0.27.09-.57,0.18-0.89,0.27l-2.21.53q-2.29.56-2.29,2.43a2.26,2.26,0,0,0,.89,1.89,3.93,3.93,0,0,0,2.47.69,8.29,8.29,0,0,0,2.37-.41l-1.86,2.36a7.7,7.7,0,0,1-1.74.19,5.42,5.42,0,0,1-3.75-1.23,4.56,4.56,0,0,1-1.61-3.52,3.85,3.85,0,0,1,.48-1.87,3.13,3.13,0,0,1,1.29-1.31,15.4,15.4,0,0,1,4.16-1.23,9.88,9.88,0,0,0,2.86-.86,1.42,1.42,0,0,0,.71-1.29,1.62,1.62,0,0,0-.38-1.06,2.4,2.4,0,0,0-1.08-.71,4.66,4.66,0,0,0-1.58-.25,6.77,6.77,0,0,0-1.87.26,16.78,16.78,0,0,0-2.45,1L301,28.26a11.49,11.49,0,0,1,2.2-.21q4,0,5.35,2.12a3.78,3.78,0,0,1,.52,1.35,18,18,0,0,1,.11,2.42V38a7.93,7.93,0,0,0,.13,1.81,1.67,1.67,0,0,0,.67.86,3.21,3.21,0,0,0,1.89.51l-1.38,2.07a13.69,13.69,0,0,1-1.77-.23,3.87,3.87,0,0,1-1.2-.49,2.25,2.25,0,0,1-1-1.11A7.14,7.14,0,0,1,306.32,39.25Z" style="fill:#fff"/><path d="M318.19,43.09h-5.24a4.42,4.42,0,0,0,.84-0.78,1.64,1.64,0,0,0,.29-0.75,12.49,12.49,0,0,0,.07-1.59V31.6a12.48,12.48,0,0,0-.07-1.6,1.64,1.64,0,0,0-.29-0.75,4.42,4.42,0,0,0-.84-0.78h2.2a2.42,2.42,0,0,0,1.85-.6v2.61a4.72,4.72,0,0,1,1.6-1.81,4,4,0,0,1,2.2-.62,6.49,6.49,0,0,1,1.1.12v2.92a2.05,2.05,0,0,0-1.49-.51,3.69,3.69,0,0,0-1.58.34,2.78,2.78,0,0,0-1.14.95,5,5,0,0,0-.67,2.89V40a11.57,11.57,0,0,0,.07,1.55,1.7,1.7,0,0,0,.3.78A5.1,5.1,0,0,0,318.19,43.09Z" style="fill:#fff"/><path d="M327.46,27.88V40a11.59,11.59,0,0,0,.07,1.55,1.7,1.7,0,0,0,.3.78,5.11,5.11,0,0,0,.83.78h-5.24a4.41,4.41,0,0,0,.84-0.78,1.64,1.64,0,0,0,.29-0.75,12.51,12.51,0,0,0,.07-1.59V31.6a12.5,12.5,0,0,0-.07-1.6,1.64,1.64,0,0,0-.29-0.75,4.41,4.41,0,0,0-.84-0.78h2.2A2.42,2.42,0,0,0,327.46,27.88ZM326,22.62a1.82,1.82,0,0,1,1.36.58,1.91,1.91,0,0,1,.56,1.37,2,2,0,0,1-.56,1.41,1.89,1.89,0,0,1-1.41.58,1.86,1.86,0,0,1-1.38-.58,2,2,0,0,1-.56-1.41,1.85,1.85,0,0,1,.59-1.38A2,2,0,0,1,326,22.62Z" style="fill:#fff"/><path d="M345.41,35.47H333.76a6.85,6.85,0,0,0,.86,3.16,5.1,5.1,0,0,0,2.2,2,7.31,7.31,0,0,0,3.28.7A10.47,10.47,0,0,0,342,41.2a7.5,7.5,0,0,0,1.72-.53,10.82,10.82,0,0,0,1.67-.94l-1.71,3a12.87,12.87,0,0,1-1.43.45,10,10,0,0,1-1.44.24q-0.75.07-1.52,0.07a10.64,10.64,0,0,1-4.64-1,7.55,7.55,0,0,1-3.19-2.75,7.28,7.28,0,0,1-1.13-4,7.72,7.72,0,0,1,.31-2.18,8.44,8.44,0,0,1,.9-2,7.49,7.49,0,0,1,1.36-1.66,6.78,6.78,0,0,1,2.35-1.37,8.94,8.94,0,0,1,2.92-.46,7.85,7.85,0,0,1,2.87.51A6.88,6.88,0,0,1,343.36,30a6.55,6.55,0,0,1,1.51,2.19,6.94,6.94,0,0,1,.54,2.76v0.51Zm-11.51-2h8.19q-0.67-3.54-4-3.54a4.07,4.07,0,0,0-2.71.92A4.48,4.48,0,0,0,333.89,33.49Z" style="fill:#fff"/><path d="M357.79,28.48v2.7a7.61,7.61,0,0,0-3.9-1.23,4,4,0,0,0-2.12.49,1.46,1.46,0,0,0-.8,1.28,1.21,1.21,0,0,0,.32.82,3,3,0,0,0,1,.69,19.77,19.77,0,0,0,2,.73,26.34,26.34,0,0,1,2.58,1,5.48,5.48,0,0,1,1.37.91,3.67,3.67,0,0,1,1.23,2.77,4.18,4.18,0,0,1-.86,2.59,5.37,5.37,0,0,1-2.43,1.73,10.37,10.37,0,0,1-3.7.6,11.84,11.84,0,0,1-2.12-.16,13.73,13.73,0,0,1-2.14-.63L347.2,39.6a18.24,18.24,0,0,0,2.15,1.17,8.84,8.84,0,0,0,1.85.61,9.5,9.5,0,0,0,1.91.18,4.38,4.38,0,0,0,2.43-.64,1.86,1.86,0,0,0,1-1.59,1.66,1.66,0,0,0-.72-1.44,17,17,0,0,0-3-1.29,17,17,0,0,1-2.86-1.26A4.05,4.05,0,0,1,348.48,34a3.24,3.24,0,0,1-.43-1.72A3.63,3.63,0,0,1,348.8,30a4.59,4.59,0,0,1,2.15-1.47,9.75,9.75,0,0,1,3.32-.51A12.7,12.7,0,0,1,357.79,28.48Z" style="fill:#fff"/><path d="M117.33,97.54v-2.2A7.69,7.69,0,0,1,111.06,98a8.53,8.53,0,0,1-4-.93,5.84,5.84,0,0,1-2.59-2.56,5.78,5.78,0,0,1-.46-1.14,7.47,7.47,0,0,1-.22-1.35q-0.07-.8-0.07-2.12V80.73a15.6,15.6,0,0,0-.11-2.12,2.72,2.72,0,0,0-.42-1.19,2.5,2.5,0,0,0-.89-0.74h6a2.55,2.55,0,0,0-.88.74,2.8,2.8,0,0,0-.41,1.18,14.79,14.79,0,0,0-.12,2.12v9.21a9.86,9.86,0,0,0,.23,2.42A4.28,4.28,0,0,0,108,94a4.53,4.53,0,0,0,1.77,1.3,5.78,5.78,0,0,0,2.26.45,6,6,0,0,0,2.63-.59,5,5,0,0,0,1.93-1.59,3,3,0,0,0,.52-1,6.12,6.12,0,0,0,.14-1.47V80.73a14.81,14.81,0,0,0-.12-2.12,2.8,2.8,0,0,0-.41-1.18,2.55,2.55,0,0,0-.88-0.74h6a2.55,2.55,0,0,0-.88.73,2.7,2.7,0,0,0-.42,1.17,14.74,14.74,0,0,0-.12,2.14V93.49a14.74,14.74,0,0,0,.12,2.14,2.7,2.7,0,0,0,.42,1.17,2.55,2.55,0,0,0,.88.73h-4.48Z" style="fill:#fff"/><path d="M127.89,82.33V85a8,8,0,0,1,2.23-1.91,5.27,5.27,0,0,1,2.46-.55,7,7,0,0,1,1.94.28,5.78,5.78,0,0,1,1.72.8,4.7,4.7,0,0,1,1.2,1.18,4.36,4.36,0,0,1,.59,1.57,16.68,16.68,0,0,1,.16,2.7v5.38a6.75,6.75,0,0,0,.18,2,3.14,3.14,0,0,0,1,1.13H134.1a4.49,4.49,0,0,0,.85-0.78,1.77,1.77,0,0,0,.31-0.81,11.46,11.46,0,0,0,.07-1.52v-5a9.81,9.81,0,0,0-.16-2,2.72,2.72,0,0,0-.53-1.18,3.2,3.2,0,0,0-1.33-1,4.67,4.67,0,0,0-1.85-.37,4.1,4.1,0,0,0-1.74.37,3.16,3.16,0,0,0-1.26,1A3.13,3.13,0,0,0,128,88v6.39a11.59,11.59,0,0,0,.07,1.55,1.7,1.7,0,0,0,.3.78,5.1,5.1,0,0,0,.83.78H124a4.42,4.42,0,0,0,.84-0.78,1.65,1.65,0,0,0,.29-0.75,12.71,12.71,0,0,0,.07-1.59V86.05a12.7,12.7,0,0,0-.07-1.6,1.65,1.65,0,0,0-.29-0.75,4.42,4.42,0,0,0-.84-0.78h2A2.45,2.45,0,0,0,127.89,82.33Z" style="fill:#fff"/><path d="M145.4,82.33V94.42a11.58,11.58,0,0,0,.07,1.55,1.7,1.7,0,0,0,.3.78,5.1,5.1,0,0,0,.83.78h-5.24a4.42,4.42,0,0,0,.84-0.78,1.65,1.65,0,0,0,.29-0.75,12.71,12.71,0,0,0,.07-1.59V86.05a12.71,12.71,0,0,0-.07-1.6,1.65,1.65,0,0,0-.29-0.75,4.42,4.42,0,0,0-.84-0.78h2.2A2.42,2.42,0,0,0,145.4,82.33ZM144,77.07a1.82,1.82,0,0,1,1.36.58,1.91,1.91,0,0,1,.56,1.37,2,2,0,0,1-.56,1.41,1.89,1.89,0,0,1-1.41.58,1.86,1.86,0,0,1-1.38-.58A2,2,0,0,1,142,79a1.85,1.85,0,0,1,.59-1.38A2,2,0,0,1,144,77.07Z" style="fill:#fff"/><path d="M156.72,94.84l3.78-8.47a5.08,5.08,0,0,0,.54-1.86,1.49,1.49,0,0,0-.21-0.83,3.36,3.36,0,0,0-.82-0.75h4.5l-7.19,15.78a19.37,19.37,0,0,1-1.95-1.26,4.14,4.14,0,0,1-1-1,11.08,11.08,0,0,1-.81-1.65l-3.72-8.55a18.63,18.63,0,0,0-.82-1.68,2.82,2.82,0,0,0-.63-0.74,12,12,0,0,0-1.26-.84h2.11a6,6,0,0,0,1.35-.11,3,3,0,0,0,1-.46,5,5,0,0,0,.4,1.46Z" style="fill:#fff"/><path d="M179.81,89.92H168.17a6.85,6.85,0,0,0,.86,3.16,5.1,5.1,0,0,0,2.2,2,7.31,7.31,0,0,0,3.28.7,10.46,10.46,0,0,0,1.91-.17,7.49,7.49,0,0,0,1.72-.53,10.82,10.82,0,0,0,1.67-.94l-1.71,3a12.93,12.93,0,0,1-1.43.45,10,10,0,0,1-1.44.24q-0.75.07-1.52,0.07a10.64,10.64,0,0,1-4.64-1,7.55,7.55,0,0,1-3.19-2.75,7.28,7.28,0,0,1-1.14-4,7.72,7.72,0,0,1,.31-2.18,8.44,8.44,0,0,1,.9-2,7.49,7.49,0,0,1,1.36-1.66A6.79,6.79,0,0,1,169.68,83a9,9,0,0,1,2.92-.46,7.85,7.85,0,0,1,2.87.51,6.88,6.88,0,0,1,2.29,1.44,6.56,6.56,0,0,1,1.51,2.19,6.94,6.94,0,0,1,.54,2.76v0.51Zm-11.51-2h8.19q-0.67-3.54-4-3.54a4.07,4.07,0,0,0-2.71.92A4.48,4.48,0,0,0,168.3,87.94Z" style="fill:#fff"/><path d="M187,97.54h-5.24a4.42,4.42,0,0,0,.84-0.78,1.65,1.65,0,0,0,.29-0.75,12.73,12.73,0,0,0,.07-1.59V86.05a12.73,12.73,0,0,0-.07-1.6,1.65,1.65,0,0,0-.29-0.75,4.42,4.42,0,0,0-.84-0.78h2.2a2.42,2.42,0,0,0,1.85-.6v2.61a4.72,4.72,0,0,1,1.6-1.81,4,4,0,0,1,2.2-.62,6.49,6.49,0,0,1,1.1.12v2.92a2.06,2.06,0,0,0-1.49-.51,3.69,3.69,0,0,0-1.58.34,2.78,2.78,0,0,0-1.14.95,5,5,0,0,0-.67,2.89v5.21a11.59,11.59,0,0,0,.07,1.55,1.71,1.71,0,0,0,.3.78A5.1,5.1,0,0,0,187,97.54Z" style="fill:#fff"/><path d="M202.13,82.93v2.7a7.61,7.61,0,0,0-3.9-1.23,4,4,0,0,0-2.12.49,1.46,1.46,0,0,0-.8,1.28,1.21,1.21,0,0,0,.32.82,3,3,0,0,0,1,.69,19.77,19.77,0,0,0,2,.73,26.35,26.35,0,0,1,2.59,1,5.48,5.48,0,0,1,1.37.91A3.67,3.67,0,0,1,203.87,93a4.17,4.17,0,0,1-.86,2.59,5.36,5.36,0,0,1-2.43,1.73,10.36,10.36,0,0,1-3.7.6,11.83,11.83,0,0,1-2.12-.16,13.73,13.73,0,0,1-2.14-.63L191.54,94a18.23,18.23,0,0,0,2.15,1.17,8.86,8.86,0,0,0,1.85.61,9.52,9.52,0,0,0,1.91.18,4.38,4.38,0,0,0,2.43-.64,1.86,1.86,0,0,0,1-1.59,1.66,1.66,0,0,0-.72-1.44,17,17,0,0,0-3-1.29,17,17,0,0,1-2.86-1.26,4.06,4.06,0,0,1-1.44-1.31,3.25,3.25,0,0,1-.43-1.72,3.63,3.63,0,0,1,.75-2.29A4.59,4.59,0,0,1,195.28,83a9.75,9.75,0,0,1,3.32-.51A12.7,12.7,0,0,1,202.13,82.93Z" style="fill:#fff"/><path d="M209.38,82.33V94.42a11.57,11.57,0,0,0,.07,1.55,1.7,1.7,0,0,0,.3.78,5.1,5.1,0,0,0,.83.78h-5.24a4.42,4.42,0,0,0,.84-0.78,1.65,1.65,0,0,0,.29-0.75,12.71,12.71,0,0,0,.07-1.59V86.05a12.71,12.71,0,0,0-.07-1.6,1.65,1.65,0,0,0-.29-0.75,4.42,4.42,0,0,0-.84-0.78h2.2A2.42,2.42,0,0,0,209.38,82.33Zm-1.44-5.26a1.82,1.82,0,0,1,1.36.58,1.91,1.91,0,0,1,.56,1.37,2,2,0,0,1-.56,1.41,1.89,1.89,0,0,1-1.41.58,1.86,1.86,0,0,1-1.38-.58,2,2,0,0,1-.56-1.41,1.85,1.85,0,0,1,.59-1.38A2,2,0,0,1,207.95,77.07Z" style="fill:#fff"/><path d="M216.73,85v6.72a11.25,11.25,0,0,0,.12,1.93,2.34,2.34,0,0,0,.45,1,3,3,0,0,0,2.43,1.08,3.77,3.77,0,0,0,1.32-.26l-1.64,2.24a3.42,3.42,0,0,1-1.14.19A4.32,4.32,0,0,1,215,96.57a4.08,4.08,0,0,1-.73-1A4,4,0,0,1,214,94.3a21.73,21.73,0,0,1-.09-2.29V85h-2.17V83.88a4.36,4.36,0,0,0,2.61-1.38,5.5,5.5,0,0,0,1.17-3.9v-0.4h1.23v4.72h2.46a5.77,5.77,0,0,0,1.86-.19V85.6a2,2,0,0,0-.76-0.45,4.45,4.45,0,0,0-1.22-.12h-2.34Z" style="fill:#fff"/><path d="M231.38,94.71l3.33-8.42a5.32,5.32,0,0,0,.48-1.92,1.74,1.74,0,0,0-.92-1.44h4.44L232,99a11.74,11.74,0,0,1-1.11,2.18,6.84,6.84,0,0,1-1.33,1.42,5.86,5.86,0,0,1-1.94,1,7.81,7.81,0,0,1-2.35.34,8.39,8.39,0,0,1-1.69-.17,17.83,17.83,0,0,1-2.15-.64l2.86-2.07a3.58,3.58,0,0,0,1.79.54,2.92,2.92,0,0,0,2.1-.89,7.59,7.59,0,0,0,1.62-2.71l0.31-.84q-0.56-.56-0.77-0.8a2.94,2.94,0,0,1-.37-0.53q-0.16-.29-0.48-1l-4.19-9.16a8.88,8.88,0,0,0-1.11-1.92,3.37,3.37,0,0,0-1.27-.89l3.06-.13a2.67,2.67,0,0,1,1,.1,1.57,1.57,0,0,1,.66.92Z" style="fill:#fff"/><path d="M106.85,116.18V130.4a29.6,29.6,0,0,0,4.26.32,9.23,9.23,0,0,0,3-.42,11.24,11.24,0,0,0,2.8-1.53l-1.68,4.2H102.26a2.48,2.48,0,0,0,.89-0.74,2.7,2.7,0,0,0,.42-1.19,15.58,15.58,0,0,0,.11-2.12V116.18a15.57,15.57,0,0,0-.11-2.12,2.72,2.72,0,0,0-.42-1.19,2.5,2.5,0,0,0-.89-0.74h6a2.36,2.36,0,0,0-.89.73,2.79,2.79,0,0,0-.4,1.19A15.75,15.75,0,0,0,106.85,116.18Z" style="fill:#fff"/><path d="M121.9,117.77v12.09a11.59,11.59,0,0,0,.07,1.55,1.7,1.7,0,0,0,.3.78,5.05,5.05,0,0,0,.83.78h-5.24a4.46,4.46,0,0,0,.84-0.78,1.67,1.67,0,0,0,.29-0.75,13,13,0,0,0,.07-1.59v-8.36a13,13,0,0,0-.07-1.6,1.67,1.67,0,0,0-.29-0.75,4.46,4.46,0,0,0-.84-0.78h2.2A2.42,2.42,0,0,0,121.9,117.77Zm-1.44-5.26a1.82,1.82,0,0,1,1.36.58,1.91,1.91,0,0,1,.56,1.37,2,2,0,0,1-.56,1.41,1.89,1.89,0,0,1-1.41.58,1.85,1.85,0,0,1-1.38-.58,2,2,0,0,1-.56-1.41,1.85,1.85,0,0,1,.59-1.38A2,2,0,0,1,120.46,112.51Z" style="fill:#fff"/><path d="M129.58,121l1.74-2.67a8,8,0,0,1,1.08-.31,5.79,5.79,0,0,1,1.08-.09,6.39,6.39,0,0,1,2.64.55,6.58,6.58,0,0,1,2.15,1.55,7,7,0,0,1,1.42,2.32,8.63,8.63,0,0,1-.62,7.14,7.56,7.56,0,0,1-3.19,2.87,10.47,10.47,0,0,1-4.72,1,26.87,26.87,0,0,1-6.09-.57,2,2,0,0,0,.78-0.82,3.79,3.79,0,0,0,.19-1.41V115.25a12.7,12.7,0,0,0-.07-1.6,1.65,1.65,0,0,0-.29-0.75,4.41,4.41,0,0,0-.84-0.78H127a2.57,2.57,0,0,0,1.86-.6v19.25a11.57,11.57,0,0,0,2.7.37,5.37,5.37,0,0,0,3.93-1.42,5.15,5.15,0,0,0,1.45-3.85,6.78,6.78,0,0,0-.59-2.91,4.68,4.68,0,0,0-1.66-2,4.29,4.29,0,0,0-2.42-.7,5.27,5.27,0,0,0-1.3.15A7.18,7.18,0,0,0,129.58,121Z" style="fill:#fff"/><path d="M147.3,133h-5.24a4.39,4.39,0,0,0,.84-0.78,1.63,1.63,0,0,0,.29-0.75,12.51,12.51,0,0,0,.07-1.59v-8.36a12.5,12.5,0,0,0-.07-1.6,1.63,1.63,0,0,0-.29-0.75,4.39,4.39,0,0,0-.84-0.78h2.2a2.42,2.42,0,0,0,1.85-.6v2.61a4.72,4.72,0,0,1,1.6-1.81,4,4,0,0,1,2.2-.62,6.49,6.49,0,0,1,1.1.12V121a2.06,2.06,0,0,0-1.49-.51,3.69,3.69,0,0,0-1.58.34,2.78,2.78,0,0,0-1.14.95,5,5,0,0,0-.67,2.89v5.21a11.57,11.57,0,0,0,.07,1.55,1.71,1.71,0,0,0,.3.78A5.15,5.15,0,0,0,147.3,133Z" style="fill:#fff"/><path d="M160.87,129.14v-4.09a8.66,8.66,0,0,1-.95.4c-0.27.09-.57,0.18-0.89,0.27l-2.21.53q-2.29.56-2.29,2.43a2.26,2.26,0,0,0,.89,1.89,3.93,3.93,0,0,0,2.47.69,8.29,8.29,0,0,0,2.37-.41l-1.86,2.36a7.7,7.7,0,0,1-1.74.19,5.42,5.42,0,0,1-3.75-1.23,4.56,4.56,0,0,1-1.61-3.52,3.85,3.85,0,0,1,.48-1.87,3.13,3.13,0,0,1,1.29-1.31,15.4,15.4,0,0,1,4.16-1.23,9.88,9.88,0,0,0,2.86-.86,1.42,1.42,0,0,0,.71-1.29,1.62,1.62,0,0,0-.38-1.06,2.4,2.4,0,0,0-1.08-.71,4.66,4.66,0,0,0-1.58-.25,6.77,6.77,0,0,0-1.87.26,16.78,16.78,0,0,0-2.45,1l2.09-3.18a11.49,11.49,0,0,1,2.2-.21q4,0,5.35,2.12a3.78,3.78,0,0,1,.52,1.35,18,18,0,0,1,.11,2.42v4.09a7.93,7.93,0,0,0,.13,1.81,1.67,1.67,0,0,0,.67.86,3.21,3.21,0,0,0,1.89.51L165,133.18a13.69,13.69,0,0,1-1.77-.23,3.87,3.87,0,0,1-1.2-.49,2.25,2.25,0,0,1-1-1.11A7.14,7.14,0,0,1,160.87,129.14Z" style="fill:#fff"/><path d="M172.74,133H167.5a4.42,4.42,0,0,0,.84-0.78,1.64,1.64,0,0,0,.29-0.75,12.49,12.49,0,0,0,.07-1.59v-8.36a12.48,12.48,0,0,0-.07-1.6,1.64,1.64,0,0,0-.29-0.75,4.42,4.42,0,0,0-.84-0.78h2.2a2.42,2.42,0,0,0,1.85-.6v2.61a4.72,4.72,0,0,1,1.6-1.81,4,4,0,0,1,2.2-.62,6.49,6.49,0,0,1,1.1.12V121a2.05,2.05,0,0,0-1.49-.51,3.69,3.69,0,0,0-1.58.34,2.78,2.78,0,0,0-1.14.95,5,5,0,0,0-.67,2.89v5.21a11.57,11.57,0,0,0,.07,1.55,1.7,1.7,0,0,0,.3.78A5.1,5.1,0,0,0,172.74,133Z" style="fill:#fff"/><path d="M182,117.77v12.09a11.59,11.59,0,0,0,.07,1.55,1.7,1.7,0,0,0,.3.78,5.11,5.11,0,0,0,.83.78H178a4.41,4.41,0,0,0,.84-0.78,1.64,1.64,0,0,0,.29-0.75,12.51,12.51,0,0,0,.07-1.59v-8.36a12.5,12.5,0,0,0-.07-1.6,1.64,1.64,0,0,0-.29-0.75,4.41,4.41,0,0,0-.84-0.78h2.2A2.42,2.42,0,0,0,182,117.77Zm-1.44-5.26a1.82,1.82,0,0,1,1.36.58,1.91,1.91,0,0,1,.56,1.37,2,2,0,0,1-.56,1.41,1.89,1.89,0,0,1-1.41.58,1.86,1.86,0,0,1-1.38-.58,2,2,0,0,1-.56-1.41,1.85,1.85,0,0,1,.59-1.38A2,2,0,0,1,180.58,112.51Z" style="fill:#fff"/><path d="M200,125.36H188.31a6.85,6.85,0,0,0,.86,3.16,5.1,5.1,0,0,0,2.2,2,7.31,7.31,0,0,0,3.28.7,10.47,10.47,0,0,0,1.91-.17,7.5,7.5,0,0,0,1.72-.53,10.82,10.82,0,0,0,1.67-.94l-1.71,3a12.87,12.87,0,0,1-1.43.45,10,10,0,0,1-1.44.24q-0.75.07-1.52,0.07a10.64,10.64,0,0,1-4.64-1,7.55,7.55,0,0,1-3.19-2.75,7.28,7.28,0,0,1-1.13-4,7.72,7.72,0,0,1,.31-2.18,8.44,8.44,0,0,1,.9-2,7.49,7.49,0,0,1,1.36-1.66,6.78,6.78,0,0,1,2.35-1.37,8.94,8.94,0,0,1,2.92-.46,7.85,7.85,0,0,1,2.87.51,6.88,6.88,0,0,1,2.29,1.44,6.55,6.55,0,0,1,1.51,2.19,6.94,6.94,0,0,1,.54,2.76v0.51Zm-11.51-2h8.19q-0.67-3.54-4-3.54a4.07,4.07,0,0,0-2.71.92A4.48,4.48,0,0,0,188.45,123.38Z" style="fill:#fff"/><path d="M212.34,118.37v2.7a7.61,7.61,0,0,0-3.9-1.23,4,4,0,0,0-2.12.49,1.46,1.46,0,0,0-.8,1.28,1.21,1.21,0,0,0,.32.82,3,3,0,0,0,1,.69,19.77,19.77,0,0,0,2,.73,26.34,26.34,0,0,1,2.58,1,5.48,5.48,0,0,1,1.37.91,3.67,3.67,0,0,1,1.23,2.77,4.18,4.18,0,0,1-.86,2.59,5.37,5.37,0,0,1-2.43,1.73,10.37,10.37,0,0,1-3.7.6,11.84,11.84,0,0,1-2.12-.16,13.73,13.73,0,0,1-2.14-.63l-1.08-3.12a18.24,18.24,0,0,0,2.15,1.17,8.84,8.84,0,0,0,1.85.61,9.5,9.5,0,0,0,1.91.18,4.38,4.38,0,0,0,2.43-.64,1.86,1.86,0,0,0,1-1.59,1.66,1.66,0,0,0-.72-1.44,17,17,0,0,0-3-1.29,17,17,0,0,1-2.86-1.26,4.05,4.05,0,0,1-1.44-1.31,3.24,3.24,0,0,1-.43-1.72,3.63,3.63,0,0,1,.75-2.29,4.59,4.59,0,0,1,2.15-1.47,9.75,9.75,0,0,1,3.32-.51A12.7,12.7,0,0,1,212.34,118.37Z" style="fill:#fff"/></svg>